<?xml version="1.0" encoding="utf-8"?>
<!-- Generator: Adobe Illustrator 25.4.1, SVG Export Plug-In . SVG Version: 6.00 Build 0)  -->
<svg version="1.1" id="Layer_1" xmlns="http://www.w3.org/2000/svg" xmlns:xlink="http://www.w3.org/1999/xlink" x="0px" y="0px"
	 viewBox="0 0 767.9 173.8" style="enable-background:new 0 0 767.9 173.8;" xml:space="preserve">
<style type="text/css">
	.st0{fill:url(#SVGID_1_);}
	.st1{fill:url(#SVGID_00000152948213971008065610000008395672255760968631_);}
	.st2{fill:url(#SVGID_00000127020917954308656680000018266774217183359363_);}
	.st3{fill:#313A61;}
</style>
<g id="ARC_1_">
	<g id="XMLID_1_">
		
			<linearGradient id="SVGID_1_" gradientUnits="userSpaceOnUse" x1="105.9106" y1="150.7309" x2="105.9106" y2="285.5074" gradientTransform="matrix(1 0 0 -1 0 269.5048)">
			<stop  offset="0" style="stop-color:#313A61"/>
			<stop  offset="1" style="stop-color:#86C4BA"/>
		</linearGradient>
		<path class="st0" d="M167.3,60.3C157,104,130.9,142.2,94,167.6c-3.4,2.3-7.8,2.3-11.1,0c-14.4-10-27.3-22-38.3-35.6
			C90.3,117.7,132.3,93.2,167.3,60.3z M88.4,157.2c22.2-15.6,40.3-36.2,52.8-60.2c-23.5,16.8-49.1,30.4-76.2,40.5
			C72.2,144.7,80,151.3,88.4,157.2z"/>
		
			<linearGradient id="SVGID_00000181809639722148234960000011649000249261757115_" gradientUnits="userSpaceOnUse" x1="95.3026" y1="150.728" x2="95.3026" y2="285.5087" gradientTransform="matrix(1 0 0 -1 0 269.5048)">
			<stop  offset="0" style="stop-color:#313A61"/>
			<stop  offset="1" style="stop-color:#86C4BA"/>
		</linearGradient>
		<path style="fill:url(#SVGID_00000181809639722148234960000011649000249261757115_);" d="M168,46C131.9,82.3,87.3,109,38.2,123.7
			c-5.9-8.3-11.1-17.1-15.6-26.3C73.7,88.7,122.9,71.4,168,46z"/>
		
			<linearGradient id="SVGID_00000004515556972507573910000011272263989370977456_" gradientUnits="userSpaceOnUse" x1="88.4116" y1="150.7343" x2="88.4116" y2="285.5096" gradientTransform="matrix(1 0 0 -1 0 269.5048)">
			<stop  offset="0" style="stop-color:#313A61"/>
			<stop  offset="1" style="stop-color:#86C4BA"/>
		</linearGradient>
		<path style="fill:url(#SVGID_00000004515556972507573910000011272263989370977456_);" d="M172.1,14.4c0.1,6.1,0,12.1-0.5,18.2
			C124.5,60.5,72.5,79.3,18.5,88.1C8.8,64.8,4.1,39.7,4.7,14.4c0.1-5.3,4.5-9.6,9.8-9.6h147.8C167.6,4.9,172,9.1,172.1,14.4z
			 M160.3,25.6c0.1-3,0.2-6,0.1-9h-144c-0.2,19.8,3,39.5,9.6,58.2C73.2,66.1,118.6,49.4,160.3,25.6z"/>
	</g>
</g>
<g>
	<path class="st3" d="M239.1,117c-5.8,0-11-1.3-15.4-3.9c-4.4-2.6-7.8-6.3-10.3-11.2c-2.4-4.9-3.7-10.8-3.7-17.6
		c0-6.8,1.3-12.7,3.9-17.6c2.6-4.9,6.2-8.7,10.9-11.3c4.7-2.6,10.2-3.9,16.5-3.9c6.9,0,12.5,1.3,16.7,3.8c4.2,2.5,7.6,6.5,10.1,11.8
		l-12.3,5.3c-1-3.4-2.8-5.9-5.2-7.6c-2.5-1.6-5.5-2.5-9.1-2.5c-5.4,0-9.7,1.9-12.8,5.7c-3.1,3.8-4.7,9.2-4.7,16.2
		c0,7.3,1.5,12.7,4.5,16.5c3,3.7,7.5,5.6,13.4,5.6c4.3,0,7.9-1,10.7-3.1c2.9-2.1,4.3-5.2,4.3-9.5v-1.4h-16.7v-9.7H268V116h-9.3
		l-0.6-8.1c-1.8,2.9-4.3,5.1-7.5,6.7C247.4,116.2,243.6,117,239.1,117z"/>
	<path class="st3" d="M335.7,52.5V91c0,8.7-2.3,15.2-6.9,19.5c-4.6,4.3-11.4,6.5-20.2,6.5c-8.9,0-15.6-2.2-20.2-6.5
		c-4.6-4.3-6.9-10.8-6.9-19.5V52.5h13.3v37.9c0,5.3,1.1,9.3,3.4,11.8c2.3,2.6,5.8,3.9,10.4,3.9c4.7,0,8.2-1.3,10.4-3.9
		c2.2-2.6,3.4-6.5,3.4-11.8V52.5H335.7z"/>
	<path class="st3" d="M341.6,116l23.2-63.6h15.9l23.2,63.6h-13.8l-5.3-15.5h-24.5l-5.2,15.5H341.6z M369.8,72.6l-6.2,18.1h17.9
		l-6-17.9l-2.9-9.6h-0.2L369.8,72.6z"/>
	<path class="st3" d="M441.4,52.5c7.1,0,12.8,1.7,16.9,5.2s6.2,8.1,6.2,14c0,4.7-1.2,8.6-3.5,11.6c-2.3,3.1-5.6,5.2-9.9,6.4
		l17.1,26.4h-14.9l-14.9-24.4h-11.9V116h-13.1V52.5H441.4z M439.8,81.5c7.4,0,11.1-3.1,11.1-9.2c0-6.2-3.7-9.2-11.1-9.2h-13.4v18.5
		H439.8z"/>
	<path class="st3" d="M503.4,52.5c10,0,17.7,2.8,23.1,8.3c5.5,5.5,8.2,13.4,8.2,23.5c0,10.1-2.7,18-8.2,23.5
		c-5.5,5.5-13.2,8.3-23.1,8.3h-24.6V52.5H503.4z M502.7,105.4c6,0,10.6-1.8,13.6-5.4c3-3.6,4.6-8.9,4.6-15.7
		c0-6.9-1.5-12.1-4.6-15.7c-3-3.6-7.6-5.4-13.6-5.4h-10.6v42.4H502.7z"/>
	<path class="st3" d="M576.1,52.5c7.1,0,12.8,1.7,16.9,5.2s6.2,8.1,6.2,14c0,4.7-1.2,8.6-3.5,11.6c-2.3,3.1-5.6,5.2-9.9,6.4
		l17.1,26.4H588l-14.9-24.4h-11.9V116h-13.1V52.5H576.1z M574.5,81.5c7.4,0,11.1-3.1,11.1-9.2c0-6.2-3.7-9.2-11.1-9.2h-13.4v18.5
		H574.5z"/>
	<path class="st3" d="M606.4,116l23.2-63.6h15.9l23.2,63.6h-13.8l-5.3-15.5h-24.5L620,116H606.4z M634.6,72.6l-6.2,18.1h17.9
		l-6-17.9l-2.9-9.6h-0.2L634.6,72.6z"/>
	<path class="st3" d="M691.4,52.5V116h-13.3V52.5H691.4z"/>
	<path class="st3" d="M721.3,105.3h33.5V116H708V52.5h13.3V105.3z"/>
</g>
</svg>
